<svg xmlns="http://www.w3.org/2000/svg" data-name="Layer 1" viewBox="0 0 100 125" x="0px" y="0px"><title>Dark Mode</title><path d="M50,77.62A27.62,27.62,0,1,0,22.38,50,27.61,27.61,0,0,0,50,77.62ZM50,26A24,24,0,1,1,26,50,24,24,0,0,1,50,26ZM69.62,50.52A19.36,19.36,0,0,0,50.26,31.15V69.88A19.36,19.36,0,0,0,69.62,50.52Zm-19.88,31a1.81,1.81,0,0,0-1.81,1.81V95.69a1.81,1.81,0,0,0,3.62,0V83.3A1.81,1.81,0,0,0,49.74,81.49Zm24.9-9A1.81,1.81,0,0,0,72.09,75l8.76,8.76a1.81,1.81,0,0,0,2.55-2.56Zm6.85-22.19a1.81,1.81,0,0,0,1.81,1.81H95.69a1.81,1.81,0,1,0,0-3.62H83.3A1.81,1.81,0,0,0,81.49,50.26ZM75,27.91l8.76-8.76a1.81,1.81,0,0,0-2.56-2.55l-8.76,8.76A1.81,1.81,0,0,0,75,27.91Zm-24.75-9.4a1.81,1.81,0,0,0,1.81-1.81V4.31a1.81,1.81,0,0,0-3.62,0V16.7A1.81,1.81,0,0,0,50.26,18.51Zm-24.9,9A1.81,1.81,0,0,0,27.91,25l-8.76-8.76a1.81,1.81,0,1,0-2.55,2.56Zm-21,24H16.7a1.81,1.81,0,0,0,0-3.62H4.31a1.81,1.81,0,1,0,0,3.62Zm22,20a1.78,1.78,0,0,0-1.28.53l-8.76,8.76a1.8,1.8,0,0,0,0,2.56,1.82,1.82,0,0,0,2.56,0l8.76-8.77a1.81,1.81,0,0,0-1.28-3.08Z"/><text x="0" y="115" fill="#000000" font-size="5px" font-weight="bold" font-family="'Helvetica Neue', Helvetica, Arial-Unicode, Arial, Sans-serif">Created by Rainbow Designs</text><text x="0" y="120" fill="#000000" font-size="5px" font-weight="bold" font-family="'Helvetica Neue', Helvetica, Arial-Unicode, Arial, Sans-serif">from the Noun Project</text></svg>